<svg width="177" height="26" viewBox="0 0 177 26" fill="none" xmlns="http://www.w3.org/2000/svg">
<path d="M18.88 24.512C18.368 24.6827 17.8347 24.7893 17.28 24.832C16.8107 24.8747 16.288 24.8533 15.712 24.768C15.1573 24.6827 14.6027 24.48 14.048 24.16C13.4293 23.7973 12.9173 23.3707 12.512 22.88C12.128 22.3893 11.8187 21.9093 11.584 21.44C11.3493 20.9707 11.1787 20.544 11.072 20.16C10.9867 19.776 10.9333 19.4987 10.912 19.328C10.8907 19.4987 10.8267 19.776 10.72 20.16C10.6347 20.544 10.4747 20.9707 10.24 21.44C10.0053 21.9093 9.68535 22.3893 9.28001 22.88C8.89601 23.3707 8.39468 23.7973 7.77601 24.16C7.22135 24.48 6.65601 24.6827 6.08001 24.768C5.52535 24.8533 5.01335 24.8747 4.54401 24.832C3.98935 24.7893 3.45601 24.6827 2.94401 24.512C2.51735 24.3627 2.14401 24.1707 1.82401 23.936C1.52535 23.68 1.26935 23.4027 1.05601 23.104C0.864013 22.784 0.693347 22.4533 0.544013 22.112C0.416013 21.7493 0.320013 21.3973 0.256013 21.056C0.0853466 20.2453 0.0213466 19.3813 0.0640132 18.464C0.128013 16.9493 0.29868 15.5627 0.576013 14.304C0.853347 13.024 1.19468 11.8613 1.60001 10.816C2.02668 9.74932 2.48535 8.79999 2.97601 7.96799C3.46668 7.11465 3.94668 6.34665 4.41601 5.66399C5.12001 4.63999 5.83468 3.86132 6.56001 3.32799C7.30668 2.79465 7.98935 2.41065 8.60801 2.17599C9.24801 1.91999 9.77068 1.78132 10.176 1.75999C10.6027 1.71732 10.848 1.69599 10.912 1.69599C10.976 1.69599 11.2107 1.71732 11.616 1.75999C12.0427 1.78132 12.5653 1.91999 13.184 2.17599C13.824 2.41065 14.5173 2.79465 15.264 3.32799C16.0107 3.86132 16.736 4.63999 17.44 5.66399C17.9093 6.34665 18.3787 7.11465 18.848 7.96799C19.3387 8.79999 19.7867 9.74932 20.192 10.816C20.6187 11.8613 20.9707 13.024 21.248 14.304C21.5253 15.5627 21.696 16.9493 21.76 18.464C21.824 19.3813 21.7707 20.2453 21.6 21.056C21.536 21.3973 21.4293 21.7493 21.28 22.112C21.152 22.4533 20.9813 22.784 20.768 23.104C20.5547 23.4027 20.288 23.68 19.968 23.936C19.6693 24.1707 19.3067 24.3627 18.88 24.512ZM11.04 12.992C10.6773 12.992 10.3573 13.1307 10.08 13.408C9.82401 13.6853 9.71735 13.9947 9.76001 14.336C9.80268 14.784 9.93068 15.0933 10.144 15.264C10.3787 15.4347 10.6773 15.52 11.04 15.52C11.4027 15.52 11.7013 15.4133 11.936 15.2C12.1707 14.9867 12.288 14.6987 12.288 14.336C12.288 13.9947 12.1813 13.6853 11.968 13.408C11.7547 13.1307 11.4453 12.992 11.04 12.992ZM32.306 14.624C33.2233 14.752 34.034 14.9227 34.738 15.136C35.442 15.3493 36.0393 15.5947 36.53 15.872C37.042 16.1493 37.458 16.448 37.778 16.768C38.1193 17.0667 38.386 17.3653 38.578 17.664C39.0473 18.368 39.282 19.1467 39.282 20C39.282 20.704 39.1753 21.3333 38.962 21.888C38.77 22.4213 38.5033 22.8907 38.162 23.296C37.842 23.68 37.4687 24.0107 37.042 24.288C36.6367 24.5653 36.2207 24.8 35.794 24.992C34.77 25.4187 33.6073 25.6853 32.306 25.792C31.1113 25.8347 30.066 25.8133 29.17 25.728C28.2953 25.6427 27.538 25.5147 26.898 25.344C26.258 25.1733 25.714 24.9707 25.266 24.736C24.8393 24.5013 24.498 24.256 24.242 24C23.6233 23.4027 23.314 22.7093 23.314 21.92C23.2927 21.3867 23.3567 20.9173 23.506 20.512C23.6767 20.1067 23.9007 19.7547 24.178 19.456C24.4767 19.1573 24.8073 18.912 25.17 18.72C25.5327 18.5067 25.906 18.336 26.29 18.208C27.186 17.9093 28.2207 17.7387 29.394 17.696C27.9433 17.3547 26.8447 16.9173 26.098 16.384C25.3513 15.8507 24.818 15.3387 24.498 14.848C24.114 14.272 23.922 13.664 23.922 13.024C23.9433 12.3413 24.082 11.744 24.338 11.232C24.594 10.72 24.914 10.2827 25.298 9.91999C25.7033 9.53599 26.1407 9.22665 26.61 8.99199C27.1007 8.73599 27.602 8.52265 28.114 8.35199C29.2873 7.96799 30.6207 7.77599 32.114 7.77599C33.6073 7.81865 34.8127 7.94665 35.73 8.15999C36.6687 8.35199 37.394 8.62932 37.906 8.99199C38.418 9.33332 38.7593 9.73865 38.93 10.208C39.1007 10.656 39.1753 11.136 39.154 11.648C39.1327 12.1387 39.0153 12.5547 38.802 12.896C38.5887 13.2373 38.322 13.5253 38.002 13.76C37.682 13.9733 37.3193 14.1547 36.914 14.304C36.5087 14.432 36.0927 14.528 35.666 14.592C34.6633 14.7413 33.5433 14.752 32.306 14.624ZM49.8915 3.58399C49.9342 4.05332 49.8702 4.51199 49.6995 4.95999C49.5502 5.40799 49.3155 5.81332 48.9955 6.17599C48.6968 6.51732 48.3235 6.80532 47.8755 7.03999C47.4275 7.25332 46.9368 7.39199 46.4035 7.45599C45.8488 7.51999 45.3262 7.48799 44.8355 7.35999C44.3662 7.21065 43.9395 6.99732 43.5555 6.71999C43.1715 6.44265 42.8515 6.11199 42.5955 5.72799C42.3608 5.32265 42.2115 4.87465 42.1475 4.38399C42.1048 3.91465 42.1582 3.46665 42.3075 3.03999C42.4782 2.59199 42.7235 2.19732 43.0435 1.85599C43.3635 1.49332 43.7475 1.19465 44.1955 0.959986C44.6435 0.72532 45.1342 0.575986 45.6675 0.511986C46.2008 0.447987 46.7022 0.490653 47.1715 0.639986C47.6622 0.767987 48.0995 0.970654 48.4835 1.24799C48.8675 1.52532 49.1875 1.86665 49.4435 2.27199C49.6995 2.67732 49.8488 3.11465 49.8915 3.58399ZM51.2675 21.568C51.0968 22.528 50.7662 23.264 50.2755 23.776C49.7848 24.2667 49.2835 24.6293 48.7715 24.864C48.1528 25.12 47.4915 25.2587 46.7875 25.28C45.8702 25.3227 45.1235 25.1947 44.5475 24.896C43.9715 24.6187 43.5128 24.2987 43.1715 23.936C42.7875 23.5307 42.4782 23.0507 42.2435 22.496C41.8168 21.344 41.5608 20.16 41.4755 18.944C41.4115 17.7067 41.4328 16.576 41.5395 15.552C41.6462 14.3787 41.8382 13.2267 42.1155 12.096C42.3715 11.1147 42.7448 10.3787 43.2355 9.88799C43.7475 9.37599 44.2488 9.00265 44.7395 8.76799C45.3155 8.51199 45.9235 8.37332 46.5635 8.35199C47.5448 8.30932 48.3342 8.47999 48.9315 8.86399C49.5502 9.22665 50.0408 9.65332 50.4035 10.144C50.8088 10.6987 51.1075 11.36 51.2995 12.128C51.4488 12.832 51.5662 13.6533 51.6515 14.592C51.7155 15.4027 51.7262 16.3947 51.6835 17.568C51.6622 18.72 51.5235 20.0533 51.2675 21.568ZM60.345 8.38399C61.4757 8.27732 62.4037 8.34132 63.129 8.57599C63.8543 8.78932 64.4197 9.05599 64.825 9.37599C65.2517 9.69599 65.5503 10.016 65.721 10.336C65.8917 10.6347 65.9877 10.816 66.009 10.88C66.009 10.8587 66.0623 10.7093 66.169 10.432C66.297 10.1333 66.4997 9.81332 66.777 9.47199C67.0543 9.13065 67.4277 8.83199 67.897 8.57599C68.3663 8.29865 68.953 8.15999 69.657 8.15999C70.2543 8.15999 70.777 8.27732 71.225 8.51199C71.673 8.74665 72.0677 9.05599 72.409 9.43999C72.7503 9.82399 73.0383 10.2613 73.273 10.752C73.5077 11.2427 73.6997 11.744 73.849 12.256C74.2117 13.4507 74.4143 14.8053 74.457 16.32C74.521 17.536 74.4997 18.6027 74.393 19.52C74.2863 20.416 74.1263 21.1947 73.913 21.856C73.721 22.496 73.4863 23.04 73.209 23.488C72.9317 23.9147 72.6437 24.256 72.345 24.512C71.641 25.1307 70.8197 25.4187 69.881 25.376C69.305 25.3973 68.761 25.3013 68.249 25.088C67.8223 24.9173 67.4063 24.6293 67.001 24.224C66.5957 23.7973 66.3397 23.1787 66.233 22.368C66.0197 23.008 65.6357 23.552 65.081 24C64.6117 24.384 63.9503 24.7147 63.097 24.992C62.2437 25.2693 61.113 25.3227 59.705 25.152C58.553 25.024 57.529 24.6827 56.633 24.128C56.249 23.8933 55.865 23.5947 55.481 23.232C55.1183 22.8693 54.7877 22.4213 54.489 21.888C54.2117 21.3547 53.9877 20.736 53.817 20.032C53.6463 19.328 53.561 18.5173 53.561 17.6C53.5183 16 53.721 14.5493 54.169 13.248C54.361 12.6933 54.617 12.1493 54.937 11.616C55.257 11.0613 55.6623 10.56 56.153 10.112C56.6437 9.66399 57.2303 9.29065 57.913 8.99199C58.5957 8.67199 59.4063 8.46932 60.345 8.38399ZM64.601 15.904C64.2383 15.904 63.9183 16.0427 63.641 16.32C63.385 16.5973 63.2783 16.9067 63.321 17.248C63.3637 17.696 63.4917 18.0053 63.705 18.176C63.9397 18.3467 64.2383 18.432 64.601 18.432C64.9637 18.432 65.2623 18.3253 65.497 18.112C65.7317 17.8987 65.849 17.6107 65.849 17.248C65.849 16.9067 65.7423 16.5973 65.529 16.32C65.3157 16.0427 65.0063 15.904 64.601 15.904ZM97.5003 17.44C97.5429 18.6987 97.4256 19.84 97.1483 20.864C97.0203 21.312 96.8496 21.76 96.6363 22.208C96.4443 22.6347 96.1776 23.04 95.8363 23.424C95.4949 23.7867 95.0896 24.1067 94.6203 24.384C94.1723 24.6613 93.6283 24.8533 92.9883 24.96C92.9883 24.96 92.8603 24.9707 92.6043 24.992C92.3483 25.0133 92.0176 25.0027 91.6123 24.96C91.2283 24.9173 90.8016 24.832 90.3323 24.704C89.8843 24.5547 89.4576 24.32 89.0523 24C88.6469 23.6587 88.2949 23.2107 87.9963 22.656C87.7189 22.1013 87.5589 21.3973 87.5163 20.544C87.4309 19.712 87.3456 18.9653 87.2603 18.304C87.1536 17.7493 87.0363 17.2373 86.9083 16.768C86.7803 16.2773 86.6096 16.032 86.3963 16.032C86.4603 16.8213 86.4923 17.504 86.4923 18.08C86.5136 18.656 86.5136 19.1467 86.4923 19.552C86.4709 20.0213 86.4496 20.4267 86.4283 20.768C86.3216 21.5573 86.0763 22.2613 85.6923 22.88C85.3723 23.4133 84.8923 23.904 84.2523 24.352C83.6336 24.8 82.7696 25.0347 81.6603 25.056C81.1269 25.056 80.6469 24.992 80.2203 24.864C79.8149 24.7573 79.4523 24.5973 79.1323 24.384C78.8123 24.1707 78.5243 23.936 78.2683 23.68C78.0336 23.4027 77.8309 23.1253 77.6603 22.848C77.2549 22.1867 76.9669 21.44 76.7963 20.608C76.6469 20.032 76.5296 19.3707 76.4443 18.624C76.3589 17.984 76.3056 17.216 76.2843 16.32C76.2629 15.424 76.3056 14.4 76.4123 13.248C76.5189 12.352 76.7643 11.5413 77.1483 10.816C77.2976 10.5173 77.4896 10.2187 77.7243 9.91999C77.9589 9.62132 78.2363 9.35465 78.5563 9.11999C78.8763 8.86399 79.2389 8.66132 79.6443 8.51199C80.0709 8.34132 80.5509 8.23465 81.0843 8.19199C82.0229 8.12799 82.7909 8.17065 83.3883 8.31999C84.0069 8.46932 84.5083 8.67199 84.8923 8.92799C85.2763 9.16265 85.5643 9.42932 85.7563 9.72799C85.9696 10.0053 86.1509 10.272 86.3003 10.528C88.2203 9.48265 89.9696 8.99199 91.5483 9.05599C92.2096 9.07732 92.8709 9.22665 93.5323 9.50399C94.1936 9.75999 94.7909 10.208 95.3243 10.848C95.8789 11.4667 96.3483 12.3093 96.7323 13.376C97.1163 14.4427 97.3723 15.7973 97.5003 17.44Z" fill="#F1C74E"/>
<path d="M111.543 8.38399C112.396 8.14932 113.164 8.05332 113.847 8.09599C114.423 8.13865 114.956 8.33065 115.447 8.67199C115.937 8.99199 116.204 9.58932 116.247 10.464C116.268 11.3387 116.076 11.968 115.671 12.352C115.265 12.736 114.807 12.992 114.295 13.12C113.697 13.2693 113.015 13.2907 112.247 13.184C112.545 15.4027 112.609 17.3973 112.439 19.168C112.375 19.9147 112.247 20.6507 112.055 21.376C111.863 22.1013 111.585 22.752 111.223 23.328C110.881 23.904 110.433 24.3733 109.879 24.736C109.345 25.0987 108.684 25.2907 107.895 25.312C106.508 25.376 105.441 25.1413 104.695 24.608C103.969 24.0533 103.436 23.2427 103.095 22.176C102.775 21.1093 102.593 19.8187 102.551 18.304C102.508 16.7893 102.508 15.0827 102.551 13.184C101.74 13.4187 101.015 13.4933 100.375 13.408C100.097 13.3867 99.8198 13.3227 99.5425 13.216C99.2865 13.1093 99.0412 12.96 98.8065 12.768C98.5932 12.576 98.4118 12.3307 98.2625 12.032C98.1345 11.712 98.0598 11.3173 98.0385 10.848C98.0172 10.208 98.1558 9.69599 98.4545 9.31199C98.7745 8.92799 99.1692 8.65065 99.6385 8.47999C100.108 8.30932 100.609 8.22399 101.143 8.22399C101.676 8.20265 102.145 8.23465 102.551 8.31999C102.508 7.72265 102.529 7.10399 102.615 6.46399C102.7 5.90932 102.86 5.29065 103.095 4.60799C103.351 3.92532 103.745 3.24265 104.279 2.55999C104.855 1.87732 105.569 1.33332 106.423 0.927986C107.169 0.56532 108.108 0.319987 109.239 0.191986C110.391 0.0639865 111.788 0.21332 113.431 0.639986C113.9 0.810653 114.327 1.02399 114.711 1.27999C115.031 1.51465 115.308 1.82399 115.543 2.20799C115.777 2.57065 115.863 3.02932 115.799 3.58399C115.777 3.96799 115.681 4.30932 115.511 4.60799C115.361 4.86399 115.137 5.09865 114.839 5.31199C114.561 5.50399 114.156 5.58932 113.623 5.56799C113.324 5.56799 113.057 5.61065 112.823 5.69599C112.609 5.75999 112.396 5.86665 112.183 6.01599C111.969 6.16532 111.809 6.38932 111.703 6.68799C111.66 6.79465 111.628 6.93332 111.607 7.10399C111.543 7.42399 111.521 7.85065 111.543 8.38399Z" fill="black"/>
<path d="M133.131 21.088C132.79 21.7067 132.384 22.2507 131.915 22.72C131.467 23.168 131.03 23.5413 130.603 23.84C130.112 24.2027 129.611 24.4907 129.099 24.704C128.672 24.8747 128.256 25.0027 127.851 25.088C127.467 25.1947 127.126 25.2693 126.827 25.312C126.464 25.376 126.144 25.408 125.867 25.408C124.694 25.408 123.659 25.2907 122.763 25.056C121.888 24.8213 121.12 24.5227 120.459 24.16C119.798 23.776 119.232 23.3387 118.763 22.848C118.315 22.3573 117.952 21.856 117.675 21.344C116.971 20.1707 116.587 18.816 116.523 17.28C116.523 16.0427 116.651 14.976 116.907 14.08C117.184 13.1627 117.536 12.384 117.963 11.744C118.411 11.0827 118.912 10.5387 119.467 10.112C120.043 9.68532 120.619 9.34399 121.195 9.08799C122.56 8.49065 124.118 8.22399 125.867 8.28799C126.891 8.28799 127.798 8.40532 128.587 8.63999C129.376 8.87465 130.059 9.18399 130.635 9.56799C131.232 9.95199 131.723 10.3893 132.107 10.88C132.512 11.3493 132.843 11.84 133.099 12.352C133.696 13.5253 134.038 14.8693 134.123 16.384C134.123 17.3867 134.027 18.272 133.835 19.04C133.664 19.808 133.43 20.4907 133.131 21.088ZM125.675 16.032C125.312 16.032 124.992 16.1707 124.715 16.448C124.459 16.7253 124.352 17.0347 124.395 17.376C124.438 17.824 124.566 18.1333 124.779 18.304C125.014 18.4747 125.312 18.56 125.675 18.56C126.038 18.56 126.336 18.4533 126.571 18.24C126.806 18.0267 126.923 17.7387 126.923 17.376C126.923 17.0347 126.816 16.7253 126.603 16.448C126.39 16.1707 126.08 16.032 125.675 16.032ZM151.881 21.088C151.54 21.7067 151.134 22.2507 150.665 22.72C150.217 23.168 149.78 23.5413 149.353 23.84C148.862 24.2027 148.361 24.4907 147.849 24.704C147.422 24.8747 147.006 25.0027 146.601 25.088C146.217 25.1947 145.876 25.2693 145.577 25.312C145.214 25.376 144.894 25.408 144.617 25.408C143.444 25.408 142.409 25.2907 141.513 25.056C140.638 24.8213 139.87 24.5227 139.209 24.16C138.548 23.776 137.982 23.3387 137.513 22.848C137.065 22.3573 136.702 21.856 136.425 21.344C135.721 20.1707 135.337 18.816 135.273 17.28C135.273 16.0427 135.401 14.976 135.657 14.08C135.934 13.1627 136.286 12.384 136.713 11.744C137.161 11.0827 137.662 10.5387 138.217 10.112C138.793 9.68532 139.369 9.34399 139.945 9.08799C141.31 8.49065 142.868 8.22399 144.617 8.28799C145.641 8.28799 146.548 8.40532 147.337 8.63999C148.126 8.87465 148.809 9.18399 149.385 9.56799C149.982 9.95199 150.473 10.3893 150.857 10.88C151.262 11.3493 151.593 11.84 151.849 12.352C152.446 13.5253 152.788 14.8693 152.873 16.384C152.873 17.3867 152.777 18.272 152.585 19.04C152.414 19.808 152.18 20.4907 151.881 21.088ZM144.425 16.032C144.062 16.032 143.742 16.1707 143.465 16.448C143.209 16.7253 143.102 17.0347 143.145 17.376C143.188 17.824 143.316 18.1333 143.529 18.304C143.764 18.4747 144.062 18.56 144.425 18.56C144.788 18.56 145.086 18.4533 145.321 18.24C145.556 18.0267 145.673 17.7387 145.673 17.376C145.673 17.0347 145.566 16.7253 145.353 16.448C145.14 16.1707 144.83 16.032 144.425 16.032ZM175.399 23.84C174.844 24.416 174.247 24.7467 173.607 24.832C172.988 24.9387 172.402 24.928 171.847 24.8C171.292 24.6933 170.834 24.544 170.471 24.352C170.108 24.16 169.927 24.064 169.927 24.064C169.095 24.4907 168.178 24.8213 167.175 25.056C166.172 25.2907 165.148 25.4293 164.103 25.472C163.079 25.5147 162.076 25.4507 161.095 25.28C160.114 25.1093 159.239 24.8213 158.471 24.416C157.959 24.1173 157.479 23.7653 157.031 23.36C156.647 22.9973 156.252 22.56 155.847 22.048C155.463 21.5147 155.186 20.8853 155.015 20.16C154.844 19.4987 154.727 18.7733 154.663 17.984C154.62 17.1733 154.663 16.352 154.791 15.52C154.919 14.688 155.154 13.888 155.495 13.12C155.836 12.3307 156.327 11.6373 156.967 11.04C157.948 10.1227 158.972 9.51465 160.039 9.21599C161.127 8.91732 162.13 8.76799 163.047 8.76799C164.114 8.78932 165.159 8.94932 166.183 9.24799C165.948 7.64799 165.916 6.21865 166.087 4.95999C166.151 4.42665 166.268 3.90399 166.439 3.39199C166.61 2.85865 166.844 2.38932 167.143 1.98399C167.463 1.57865 167.858 1.25865 168.327 1.02399C168.818 0.767986 169.404 0.639986 170.087 0.639986C170.684 0.639986 171.218 0.72532 171.687 0.895987C172.156 1.06665 172.572 1.29065 172.935 1.56799C173.298 1.84532 173.607 2.16532 173.863 2.52799C174.14 2.86932 174.364 3.22132 174.535 3.58399C174.94 4.43732 175.207 5.41865 175.335 6.52799C175.463 7.70132 175.527 8.91732 175.527 10.176C175.527 11.264 175.452 12.48 175.303 13.824C175.175 15.1467 174.93 16.48 174.567 17.824C175.186 18.1227 175.644 18.528 175.943 19.04C176.263 19.552 176.444 20.096 176.487 20.672C176.53 21.248 176.455 21.824 176.263 22.4C176.071 22.9547 175.783 23.4347 175.399 23.84ZM166.023 15.904C165.66 15.904 165.34 16.0427 165.063 16.32C164.807 16.5973 164.7 16.9067 164.743 17.248C164.786 17.696 164.914 18.0053 165.127 18.176C165.362 18.3467 165.66 18.432 166.023 18.432C166.386 18.432 166.684 18.3253 166.919 18.112C167.154 17.8987 167.271 17.6107 167.271 17.248C167.271 16.9067 167.164 16.5973 166.951 16.32C166.738 16.0427 166.428 15.904 166.023 15.904Z" fill="#767676"/>
</svg>
